<svg xmlns="http://www.w3.org/2000/svg"
     viewBox="0 0 16 16"
     shape-rendering="crispEdges">
  <!-- Pip, the mint blob seeded into every new Petbox pen. -->
  <g fill="#0B0C1A">
    <rect x="6" y="2" width="4" height="1"/>
    <rect x="4" y="3" width="2" height="1"/>
    <rect x="10" y="3" width="2" height="1"/>
    <rect x="3" y="4" width="1" height="1"/>
    <rect x="12" y="4" width="1" height="1"/>
    <rect x="2" y="5" width="1" height="2"/>
    <rect x="13" y="5" width="1" height="2"/>
    <rect x="1" y="7" width="1" height="6"/>
    <rect x="14" y="7" width="1" height="6"/>
    <rect x="2" y="13" width="1" height="1"/>
    <rect x="13" y="13" width="1" height="1"/>
    <rect x="3" y="14" width="10" height="1"/>
  </g>
  <g fill="#63E29E">
    <rect x="6" y="3" width="4" height="1"/>
    <rect x="4" y="4" width="8" height="1"/>
    <rect x="3" y="5" width="10" height="1"/>
    <rect x="3" y="6" width="2" height="1"/>
    <rect x="11" y="6" width="2" height="1"/>
    <rect x="2" y="7" width="2" height="1"/>
    <rect x="12" y="7" width="2" height="1"/>
    <rect x="2" y="8" width="1" height="2"/>
  </g>
  <g fill="#3FBF7F">
    <rect x="5" y="6" width="6" height="1"/>
    <rect x="4" y="7" width="1" height="1"/>
    <rect x="7" y="7" width="2" height="1"/>
    <rect x="11" y="7" width="1" height="1"/>
    <rect x="3" y="8" width="2" height="1"/>
    <rect x="8" y="8" width="1" height="1"/>
    <rect x="12" y="8" width="2" height="1"/>
    <rect x="3" y="9" width="11" height="1"/>
    <rect x="2" y="10" width="3" height="1"/>
    <rect x="7" y="10" width="3" height="1"/>
    <rect x="12" y="10" width="2" height="1"/>
    <rect x="2" y="11" width="12" height="2"/>
  </g>
  <g fill="#F2F5FF">
    <rect x="5" y="7" width="2" height="1"/>
    <rect x="9" y="7" width="2" height="1"/>
    <rect x="5" y="8" width="1" height="1"/>
    <rect x="9" y="8" width="1" height="1"/>
  </g>
  <g fill="#0B0C1A">
    <rect x="6" y="8" width="2" height="1"/>
    <rect x="10" y="8" width="2" height="1"/>
  </g>
  <g fill="#F5C542">
    <rect x="5" y="10" width="2" height="1"/>
    <rect x="10" y="10" width="2" height="1"/>
  </g>
  <rect x="3" y="13" width="10" height="1" fill="#2A8A5C"/>
</svg>
